<svg xmlns="http://www.w3.org/2000/svg" xmlns:xlink="http://www.w3.org/1999/xlink" width="1080" zoomAndPan="magnify" viewBox="0 0 810 1012.49997" height="1350" preserveAspectRatio="xMidYMid meet" version="1.0"><defs><g/><clipPath id="470491b0d6"><rect x="0" width="658" y="0" height="180"/></clipPath><clipPath id="6a76903fd7"><rect x="0" width="101" y="0" height="89"/></clipPath></defs><g transform="matrix(1, 0, 0, 1, 13, 414)"><g clip-path="url(#470491b0d6)"><g fill="#000000" fill-opacity="1"><g transform="translate(0.197076, 144.886075)"><g><path d="M 54.796875 2.390625 C 43.546875 2.390625 34.0625 -0.0195312 26.34375 -4.84375 C 18.632812 -9.675781 12.8125 -16.296875 8.875 -24.703125 C 4.945312 -33.117188 2.984375 -42.703125 2.984375 -53.453125 C 2.984375 -64.203125 4.945312 -73.753906 8.875 -82.109375 C 12.8125 -90.472656 18.632812 -97.066406 26.34375 -101.890625 C 34.0625 -106.722656 43.546875 -109.140625 54.796875 -109.140625 C 64.546875 -109.140625 72.753906 -107.347656 79.421875 -103.765625 C 86.085938 -100.179688 91.3125 -95.226562 95.09375 -88.90625 C 98.882812 -82.582031 101.175781 -75.289062 101.96875 -67.03125 L 75.09375 -67.03125 C 74.101562 -72.90625 72.039062 -77.734375 68.90625 -81.515625 C 65.769531 -85.296875 60.664062 -87.1875 53.59375 -87.1875 C 47.71875 -87.1875 43.039062 -85.765625 39.5625 -82.921875 C 36.082031 -80.085938 33.59375 -76.132812 32.09375 -71.0625 C 30.601562 -65.988281 29.859375 -60.117188 29.859375 -53.453125 C 29.859375 -46.785156 30.601562 -40.882812 32.09375 -35.75 C 33.59375 -30.625 36.082031 -26.644531 39.5625 -23.8125 C 43.039062 -20.976562 47.71875 -19.5625 53.59375 -19.5625 C 60.757812 -19.5625 65.910156 -21.472656 69.046875 -25.296875 C 72.179688 -29.128906 74.195312 -34.035156 75.09375 -40.015625 L 101.96875 -40.015625 C 101.175781 -31.648438 98.910156 -24.28125 95.171875 -17.90625 C 91.441406 -11.539062 86.21875 -6.566406 79.5 -2.984375 C 72.78125 0.597656 64.546875 2.390625 54.796875 2.390625 Z M 54.796875 2.390625 "/></g></g></g><g fill="#000000" fill-opacity="1"><g transform="translate(104.249741, 144.886075)"><g><path d="M 5.828125 0 L 5.828125 -106.75 L 29.703125 -106.75 L 29.703125 -65.390625 L 30.015625 -65.390625 C 32.003906 -68.878906 34.9375 -71.988281 38.8125 -74.71875 C 42.695312 -77.457031 47.675781 -78.828125 53.75 -78.828125 C 61.8125 -78.828125 68.179688 -76.488281 72.859375 -71.8125 C 77.535156 -67.132812 79.875 -60.414062 79.875 -51.65625 L 79.875 0 L 55.984375 0 L 55.984375 -44.046875 C 55.984375 -49.816406 55.007812 -53.820312 53.0625 -56.0625 C 51.125 -58.300781 47.96875 -59.421875 43.59375 -59.421875 C 39.8125 -59.421875 36.550781 -58.203125 33.8125 -55.765625 C 31.070312 -53.328125 29.703125 -49.46875 29.703125 -44.1875 L 29.703125 0 Z M 5.828125 0 "/></g></g></g><g fill="#000000" fill-opacity="1"><g transform="translate(189.343022, 144.886075)"><g><path d="M 43.140625 2.390625 C 34.679688 2.390625 27.414062 0.675781 21.34375 -2.75 C 15.28125 -6.1875 10.601562 -10.96875 7.3125 -17.09375 C 4.03125 -23.21875 2.390625 -30.257812 2.390625 -38.21875 C 2.390625 -45.976562 3.976562 -52.921875 7.15625 -59.046875 C 10.34375 -65.171875 14.894531 -70 20.8125 -73.53125 C 26.738281 -77.0625 33.734375 -78.828125 41.796875 -78.828125 C 50.554688 -78.828125 57.847656 -76.859375 63.671875 -72.921875 C 69.492188 -68.992188 73.875 -63.492188 76.8125 -56.421875 C 79.75 -49.359375 81.21875 -41.203125 81.21875 -31.953125 L 26.28125 -31.953125 C 26.28125 -26.578125 27.945312 -22.492188 31.28125 -19.703125 C 34.613281 -16.921875 38.421875 -15.53125 42.703125 -15.53125 C 46.773438 -15.53125 49.878906 -16.320312 52.015625 -17.90625 C 54.160156 -19.5 55.582031 -21.242188 56.28125 -23.140625 L 80.015625 -23.140625 C 77.929688 -15.472656 73.851562 -9.300781 67.78125 -4.625 C 61.707031 0.0507812 53.492188 2.390625 43.140625 2.390625 Z M 26.28125 -46.4375 L 57.328125 -46.4375 C 57.328125 -51.707031 55.882812 -55.6875 53 -58.375 C 50.113281 -61.0625 46.378906 -62.40625 41.796875 -62.40625 C 37.222656 -62.40625 33.492188 -61.0625 30.609375 -58.375 C 27.722656 -55.6875 26.28125 -51.707031 26.28125 -46.4375 Z M 26.28125 -46.4375 "/></g></g></g><g fill="#000000" fill-opacity="1"><g transform="translate(272.943451, 144.886075)"><g><path d="M 41.796875 2.390625 C 33.734375 2.390625 26.765625 0.675781 20.890625 -2.75 C 15.023438 -6.1875 10.472656 -10.96875 7.234375 -17.09375 C 4.003906 -23.21875 2.390625 -30.257812 2.390625 -38.21875 C 2.390625 -46.175781 3.976562 -53.191406 7.15625 -59.265625 C 10.34375 -65.335938 14.847656 -70.113281 20.671875 -73.59375 C 26.492188 -77.082031 33.335938 -78.828125 41.203125 -78.828125 C 48.671875 -78.828125 55.066406 -77.484375 60.390625 -74.796875 C 65.710938 -72.109375 69.941406 -68.445312 73.078125 -63.8125 C 76.210938 -59.1875 78.078125 -53.890625 78.671875 -47.921875 L 55.234375 -47.921875 C 55.035156 -50.015625 54.460938 -52.054688 53.515625 -54.046875 C 52.578125 -56.035156 51.160156 -57.675781 49.265625 -58.96875 C 47.378906 -60.257812 44.84375 -60.90625 41.65625 -60.90625 C 36.78125 -60.90625 33 -58.914062 30.3125 -54.9375 C 27.625 -50.957031 26.28125 -45.382812 26.28125 -38.21875 C 26.28125 -31.050781 27.597656 -25.476562 30.234375 -21.5 C 32.867188 -17.519531 36.675781 -15.53125 41.65625 -15.53125 C 46.425781 -15.53125 49.78125 -16.894531 51.71875 -19.625 C 53.664062 -22.363281 54.835938 -25.425781 55.234375 -28.8125 L 78.671875 -28.8125 C 78.273438 -22.84375 76.535156 -17.492188 73.453125 -12.765625 C 70.367188 -8.035156 66.160156 -4.328125 60.828125 -1.640625 C 55.503906 1.046875 49.160156 2.390625 41.796875 2.390625 Z M 41.796875 2.390625 "/></g></g></g><g fill="#000000" fill-opacity="1"><g transform="translate(353.558146, 144.886075)"><g><path d="M 5.828125 0 L 5.828125 -106.75 L 29.703125 -106.75 L 29.703125 -50.609375 L 52.109375 -76.4375 L 80.625 -76.4375 L 53.59375 -47.78125 L 83.75 0 L 55.390625 0 L 37.328125 -30.453125 L 29.703125 -22.546875 L 29.703125 0 Z M 5.828125 0 "/></g></g></g><g fill="#000000" fill-opacity="1"><g transform="translate(431.186572, 144.886075)"><g><path d="M 43.296875 2.390625 C 34.835938 2.390625 27.546875 0.648438 21.421875 -2.828125 C 15.304688 -6.316406 10.601562 -11.117188 7.3125 -17.234375 C 4.03125 -23.359375 2.390625 -30.351562 2.390625 -38.21875 C 2.390625 -46.175781 4.03125 -53.191406 7.3125 -59.265625 C 10.601562 -65.335938 15.304688 -70.113281 21.421875 -73.59375 C 27.546875 -77.082031 34.835938 -78.828125 43.296875 -78.828125 C 51.753906 -78.828125 59.019531 -77.082031 65.09375 -73.59375 C 71.164062 -70.113281 75.84375 -65.335938 79.125 -59.265625 C 82.40625 -53.191406 84.046875 -46.175781 84.046875 -38.21875 C 84.046875 -30.351562 82.40625 -23.359375 79.125 -17.234375 C 75.84375 -11.117188 71.164062 -6.316406 65.09375 -2.828125 C 59.019531 0.648438 51.753906 2.390625 43.296875 2.390625 Z M 43.296875 -15.53125 C 48.566406 -15.53125 52.695312 -17.46875 55.6875 -21.34375 C 58.675781 -25.226562 60.171875 -30.851562 60.171875 -38.21875 C 60.171875 -45.582031 58.675781 -51.203125 55.6875 -55.078125 C 52.695312 -58.960938 48.566406 -60.90625 43.296875 -60.90625 C 38.023438 -60.90625 33.867188 -58.960938 30.828125 -55.078125 C 27.796875 -51.203125 26.28125 -45.582031 26.28125 -38.21875 C 26.28125 -30.851562 27.796875 -25.226562 30.828125 -21.34375 C 33.867188 -17.46875 38.023438 -15.53125 43.296875 -15.53125 Z M 43.296875 -15.53125 "/></g></g></g><g fill="#000000" fill-opacity="1"><g transform="translate(517.623421, 144.886075)"><g><path d="M 30.015625 2.390625 C 22.640625 2.390625 16.660156 0.0507812 12.078125 -4.625 C 7.503906 -9.300781 5.21875 -16.019531 5.21875 -24.78125 L 5.21875 -76.4375 L 29.109375 -76.4375 L 29.109375 -32.390625 C 29.109375 -26.617188 30.101562 -22.613281 32.09375 -20.375 C 34.082031 -18.132812 37.070312 -17.015625 41.0625 -17.015625 C 45.632812 -17.015625 49.164062 -18.234375 51.65625 -20.671875 C 54.144531 -23.109375 55.390625 -26.96875 55.390625 -32.25 L 55.390625 -76.4375 L 79.28125 -76.4375 L 79.28125 0 L 55.390625 0 L 55.390625 -11.046875 L 55.09375 -11.046875 C 53.101562 -7.566406 50.113281 -4.457031 46.125 -1.71875 C 42.144531 1.019531 36.773438 2.390625 30.015625 2.390625 Z M 30.015625 2.390625 "/></g></g></g><g fill="#000000" fill-opacity="1"><g transform="translate(602.716702, 144.886075)"><g><path d="M 34.640625 1.34375 C 25.878906 1.34375 19.957031 -0.921875 16.875 -5.453125 C 13.789062 -9.984375 12.25 -16.523438 12.25 -25.078125 L 12.25 -58.53125 L 1.640625 -58.53125 L 1.640625 -76.4375 L 12.25 -76.4375 L 12.25 -97.796875 L 36.125 -97.796875 L 36.125 -76.4375 L 49.421875 -76.4375 L 49.421875 -58.53125 L 36.125 -58.53125 L 36.125 -26.875 C 36.125 -23.988281 36.519531 -21.945312 37.3125 -20.75 C 38.113281 -19.550781 39.484375 -18.828125 41.421875 -18.578125 C 43.367188 -18.335938 46.035156 -18.21875 49.421875 -18.21875 L 49.421875 -0.296875 C 47.222656 0.0976562 45.054688 0.46875 42.921875 0.8125 C 40.785156 1.164062 38.023438 1.34375 34.640625 1.34375 Z M 34.640625 1.34375 "/></g></g></g></g></g><g transform="matrix(1, 0, 0, 1, 697, 440)"><g clip-path="url(#6a76903fd7)"><g fill="#000000" fill-opacity="1"><g transform="translate(0.97216, 70.687238)"><g><path d="M 26.96875 1.015625 C 21.820312 1.015625 17.390625 -0.148438 13.671875 -2.484375 C 9.953125 -4.816406 7.09375 -8.019531 5.09375 -12.09375 C 3.101562 -16.175781 2.109375 -20.84375 2.109375 -26.09375 C 2.109375 -31.34375 3.101562 -35.992188 5.09375 -40.046875 C 7.09375 -44.109375 9.953125 -47.304688 13.671875 -49.640625 C 17.390625 -51.972656 21.820312 -53.140625 26.96875 -53.140625 C 32.125 -53.140625 36.554688 -51.972656 40.265625 -49.640625 C 43.984375 -47.304688 46.847656 -44.109375 48.859375 -40.046875 C 50.878906 -35.992188 51.890625 -31.34375 51.890625 -26.09375 C 51.890625 -20.84375 50.878906 -16.175781 48.859375 -12.09375 C 46.847656 -8.019531 43.984375 -4.816406 40.265625 -2.484375 C 36.554688 -0.148438 32.125 1.015625 26.96875 1.015625 Z M 26.96875 -5.390625 C 30.613281 -5.390625 33.722656 -6.285156 36.296875 -8.078125 C 38.867188 -9.878906 40.820312 -12.335938 42.15625 -15.453125 C 43.5 -18.566406 44.171875 -22.113281 44.171875 -26.09375 C 44.171875 -30.082031 43.5 -33.628906 42.15625 -36.734375 C 40.820312 -39.847656 38.867188 -42.289062 36.296875 -44.0625 C 33.722656 -45.832031 30.613281 -46.71875 26.96875 -46.71875 C 23.320312 -46.71875 20.222656 -45.832031 17.671875 -44.0625 C 15.117188 -42.289062 13.175781 -39.847656 11.84375 -36.734375 C 10.507812 -33.628906 9.84375 -30.082031 9.84375 -26.09375 C 9.84375 -22.113281 10.507812 -18.566406 11.84375 -15.453125 C 13.175781 -12.335938 15.117188 -9.878906 17.671875 -8.078125 C 20.222656 -6.285156 23.320312 -5.390625 26.96875 -5.390625 Z M 26.96875 -5.390625 "/></g></g></g><g fill="#000000" fill-opacity="1"><g transform="translate(54.898571, 70.687238)"><g><path d="M 23.765625 1.015625 C 19.585938 1.015625 15.832031 0.335938 12.5 -1.015625 C 9.164062 -2.378906 6.503906 -4.410156 4.515625 -7.109375 C 2.523438 -9.804688 1.484375 -13.097656 1.390625 -16.984375 L 9.109375 -16.984375 C 9.253906 -13.097656 10.6875 -10.191406 13.40625 -8.265625 C 16.132812 -6.347656 19.585938 -5.390625 23.765625 -5.390625 C 27.503906 -5.390625 30.320312 -6.226562 32.21875 -7.90625 C 34.113281 -9.582031 35.0625 -11.5625 35.0625 -13.84375 C 35.113281 -16.03125 34.503906 -17.742188 33.234375 -18.984375 C 31.972656 -20.222656 30.175781 -21.21875 27.84375 -21.96875 C 25.507812 -22.726562 22.71875 -23.445312 19.46875 -24.125 C 16.300781 -24.851562 13.488281 -25.785156 11.03125 -26.921875 C 8.582031 -28.066406 6.65625 -29.597656 5.25 -31.515625 C 3.84375 -33.441406 3.140625 -35.910156 3.140625 -38.921875 C 3.140625 -42.222656 3.953125 -44.921875 5.578125 -47.015625 C 7.203125 -49.109375 9.398438 -50.648438 12.171875 -51.640625 C 14.941406 -52.640625 18.050781 -53.140625 21.5 -53.140625 C 25.238281 -53.140625 28.578125 -52.503906 31.515625 -51.234375 C 34.460938 -49.972656 36.820312 -48.164062 38.59375 -45.8125 C 40.363281 -43.457031 41.320312 -40.601562 41.46875 -37.25 L 33.75 -37.25 C 33.40625 -40.164062 32.210938 -42.472656 30.171875 -44.171875 C 28.128906 -45.867188 25.238281 -46.71875 21.5 -46.71875 C 18.394531 -46.71875 15.84375 -46.085938 13.84375 -44.828125 C 11.851562 -43.566406 10.859375 -41.769531 10.859375 -39.4375 C 10.859375 -37.488281 11.367188 -35.976562 12.390625 -34.90625 C 13.410156 -33.84375 14.890625 -32.992188 16.828125 -32.359375 C 18.773438 -31.734375 21.109375 -31.101562 23.828125 -30.46875 C 27.472656 -29.6875 30.71875 -28.703125 33.5625 -27.515625 C 36.40625 -26.328125 38.648438 -24.710938 40.296875 -22.671875 C 41.953125 -20.628906 42.78125 -17.90625 42.78125 -14.5 C 42.78125 -11.539062 42.039062 -8.878906 40.5625 -6.515625 C 39.082031 -4.160156 36.921875 -2.316406 34.078125 -0.984375 C 31.234375 0.347656 27.796875 1.015625 23.765625 1.015625 Z M 23.765625 1.015625 "/></g></g></g></g></g></svg>