<svg xmlns="http://www.w3.org/2000/svg" xmlns:xlink="http://www.w3.org/1999/xlink" width="1080" zoomAndPan="magnify" viewBox="0 0 810 1012.49997" height="1350" preserveAspectRatio="xMidYMid meet" version="1.0"><defs><g/><clipPath id="809d9bdba0"><path d="M 0.199219 0 L 809.800781 0 L 809.800781 1012 L 0.199219 1012 Z M 0.199219 0 " clip-rule="nonzero"/></clipPath><clipPath id="593f9c75d3"><rect x="0" width="440" y="0" height="121"/></clipPath><clipPath id="dde5801c74"><rect x="0" width="68" y="0" height="59"/></clipPath></defs><g clip-path="url(#809d9bdba0)"><path fill="#ffffff" d="M 0.199219 0 L 809.800781 0 L 809.800781 1012 L 0.199219 1012 Z M 0.199219 0 " fill-opacity="1" fill-rule="nonzero"/><path fill="#ffffff" d="M 0.199219 0 L 809.800781 0 L 809.800781 1012 L 0.199219 1012 Z M 0.199219 0 " fill-opacity="1" fill-rule="nonzero"/></g><g transform="matrix(1, 0, 0, 1, 143, 444)"><g clip-path="url(#593f9c75d3)"><g fill="#000000" fill-opacity="1"><g transform="translate(0.319518, 97.32199)"><g><path d="M 36.59375 1.59375 C 29.082031 1.59375 22.75 -0.015625 17.59375 -3.234375 C 12.445312 -6.460938 8.5625 -10.882812 5.9375 -16.5 C 3.3125 -22.125 2 -28.523438 2 -35.703125 C 2 -42.878906 3.3125 -49.257812 5.9375 -54.84375 C 8.5625 -60.425781 12.445312 -64.828125 17.59375 -68.046875 C 22.75 -71.273438 29.082031 -72.890625 36.59375 -72.890625 C 43.113281 -72.890625 48.597656 -71.691406 53.046875 -69.296875 C 57.503906 -66.910156 60.992188 -63.601562 63.515625 -59.375 C 66.046875 -55.15625 67.578125 -50.289062 68.109375 -44.78125 L 50.15625 -44.78125 C 49.488281 -48.695312 48.109375 -51.914062 46.015625 -54.4375 C 43.921875 -56.96875 40.515625 -58.234375 35.796875 -58.234375 C 31.878906 -58.234375 28.753906 -57.285156 26.421875 -55.390625 C 24.097656 -53.492188 22.4375 -50.847656 21.4375 -47.453125 C 20.4375 -44.066406 19.9375 -40.148438 19.9375 -35.703125 C 19.9375 -31.242188 20.4375 -27.300781 21.4375 -23.875 C 22.4375 -20.457031 24.097656 -17.800781 26.421875 -15.90625 C 28.753906 -14.007812 31.878906 -13.0625 35.796875 -13.0625 C 40.585938 -13.0625 44.03125 -14.335938 46.125 -16.890625 C 48.21875 -19.453125 49.5625 -22.726562 50.15625 -26.71875 L 68.109375 -26.71875 C 67.578125 -21.132812 66.0625 -16.210938 63.5625 -11.953125 C 61.070312 -7.703125 57.582031 -4.378906 53.09375 -1.984375 C 48.613281 0.398438 43.113281 1.59375 36.59375 1.59375 Z M 36.59375 1.59375 "/></g></g></g><g fill="#000000" fill-opacity="1"><g transform="translate(69.815041, 97.32199)"><g><path d="M 3.890625 0 L 3.890625 -71.296875 L 19.84375 -71.296875 L 19.84375 -43.671875 L 20.046875 -43.671875 C 21.367188 -46.003906 23.328125 -48.082031 25.921875 -49.90625 C 28.515625 -51.738281 31.84375 -52.65625 35.90625 -52.65625 C 41.28125 -52.65625 45.53125 -51.09375 48.65625 -47.96875 C 51.78125 -44.84375 53.34375 -40.351562 53.34375 -34.5 L 53.34375 0 L 37.390625 0 L 37.390625 -29.421875 C 37.390625 -33.273438 36.738281 -35.945312 35.4375 -37.4375 C 34.144531 -38.9375 32.039062 -39.6875 29.125 -39.6875 C 26.59375 -39.6875 24.410156 -38.867188 22.578125 -37.234375 C 20.753906 -35.609375 19.84375 -33.035156 19.84375 -29.515625 L 19.84375 0 Z M 3.890625 0 "/></g></g></g><g fill="#000000" fill-opacity="1"><g transform="translate(126.647818, 97.32199)"><g><path d="M 28.8125 1.59375 C 23.164062 1.59375 18.3125 0.445312 14.25 -1.84375 C 10.195312 -4.132812 7.070312 -7.320312 4.875 -11.40625 C 2.6875 -15.5 1.59375 -20.207031 1.59375 -25.53125 C 1.59375 -30.71875 2.65625 -35.351562 4.78125 -39.4375 C 6.914062 -43.53125 9.957031 -46.753906 13.90625 -49.109375 C 17.863281 -51.472656 22.535156 -52.65625 27.921875 -52.65625 C 33.773438 -52.65625 38.644531 -51.34375 42.53125 -48.71875 C 46.414062 -46.09375 49.335938 -42.414062 51.296875 -37.6875 C 53.265625 -32.96875 54.25 -27.519531 54.25 -21.34375 L 17.546875 -21.34375 C 17.546875 -17.75 18.660156 -15.019531 20.890625 -13.15625 C 23.117188 -11.300781 25.660156 -10.375 28.515625 -10.375 C 31.242188 -10.375 33.320312 -10.90625 34.75 -11.96875 C 36.175781 -13.03125 37.125 -14.191406 37.59375 -15.453125 L 53.453125 -15.453125 C 52.054688 -10.335938 49.328125 -6.21875 45.265625 -3.09375 C 41.210938 0.03125 35.726562 1.59375 28.8125 1.59375 Z M 17.546875 -31.015625 L 38.296875 -31.015625 C 38.296875 -34.535156 37.332031 -37.191406 35.40625 -38.984375 C 33.476562 -40.785156 30.984375 -41.6875 27.921875 -41.6875 C 24.859375 -41.6875 22.363281 -40.785156 20.4375 -38.984375 C 18.507812 -37.191406 17.546875 -34.535156 17.546875 -31.015625 Z M 17.546875 -31.015625 "/></g></g></g><g fill="#000000" fill-opacity="1"><g transform="translate(182.483539, 97.32199)"><g><path d="M 27.921875 1.59375 C 22.535156 1.59375 17.878906 0.445312 13.953125 -1.84375 C 10.035156 -4.132812 6.992188 -7.320312 4.828125 -11.40625 C 2.671875 -15.5 1.59375 -20.207031 1.59375 -25.53125 C 1.59375 -30.84375 2.65625 -35.523438 4.78125 -39.578125 C 6.914062 -43.640625 9.925781 -46.832031 13.8125 -49.15625 C 17.695312 -51.488281 22.265625 -52.65625 27.515625 -52.65625 C 32.503906 -52.65625 36.773438 -51.753906 40.328125 -49.953125 C 43.890625 -48.160156 46.71875 -45.71875 48.8125 -42.625 C 50.90625 -39.539062 52.148438 -36.003906 52.546875 -32.015625 L 36.890625 -32.015625 C 36.765625 -33.410156 36.382812 -34.769531 35.75 -36.09375 C 35.113281 -37.425781 34.164062 -38.523438 32.90625 -39.390625 C 31.644531 -40.253906 29.953125 -40.6875 27.828125 -40.6875 C 24.566406 -40.6875 22.035156 -39.351562 20.234375 -36.6875 C 18.441406 -34.03125 17.546875 -30.3125 17.546875 -25.53125 C 17.546875 -20.738281 18.425781 -17.015625 20.1875 -14.359375 C 21.945312 -11.703125 24.492188 -10.375 27.828125 -10.375 C 31.015625 -10.375 33.253906 -11.285156 34.546875 -13.109375 C 35.847656 -14.941406 36.628906 -16.988281 36.890625 -19.25 L 52.546875 -19.25 C 52.285156 -15.257812 51.125 -11.6875 49.0625 -8.53125 C 47 -5.375 44.1875 -2.894531 40.625 -1.09375 C 37.070312 0.695312 32.835938 1.59375 27.921875 1.59375 Z M 27.921875 1.59375 "/></g></g></g><g fill="#000000" fill-opacity="1"><g transform="translate(236.325123, 97.32199)"><g><path d="M 3.890625 0 L 3.890625 -71.296875 L 19.84375 -71.296875 L 19.84375 -33.796875 L 34.796875 -51.0625 L 53.84375 -51.0625 L 35.796875 -31.90625 L 55.9375 0 L 37 0 L 24.9375 -20.34375 L 19.84375 -15.0625 L 19.84375 0 Z M 3.890625 0 "/></g></g></g><g fill="#000000" fill-opacity="1"><g transform="translate(288.172214, 97.32199)"><g><path d="M 28.921875 1.59375 C 23.265625 1.59375 18.390625 0.429688 14.296875 -1.890625 C 10.210938 -4.222656 7.070312 -7.429688 4.875 -11.515625 C 2.6875 -15.609375 1.59375 -20.28125 1.59375 -25.53125 C 1.59375 -30.84375 2.6875 -35.523438 4.875 -39.578125 C 7.070312 -43.640625 10.210938 -46.832031 14.296875 -49.15625 C 18.390625 -51.488281 23.265625 -52.65625 28.921875 -52.65625 C 34.566406 -52.65625 39.414062 -51.488281 43.46875 -49.15625 C 47.53125 -46.832031 50.65625 -43.640625 52.84375 -39.578125 C 55.039062 -35.523438 56.140625 -30.84375 56.140625 -25.53125 C 56.140625 -20.28125 55.039062 -15.609375 52.84375 -11.515625 C 50.65625 -7.429688 47.53125 -4.222656 43.46875 -1.890625 C 39.414062 0.429688 34.566406 1.59375 28.921875 1.59375 Z M 28.921875 -10.375 C 32.441406 -10.375 35.195312 -11.671875 37.1875 -14.265625 C 39.1875 -16.859375 40.1875 -20.613281 40.1875 -25.53125 C 40.1875 -30.445312 39.1875 -34.203125 37.1875 -36.796875 C 35.195312 -39.390625 32.441406 -40.6875 28.921875 -40.6875 C 25.398438 -40.6875 22.625 -39.390625 20.59375 -36.796875 C 18.5625 -34.203125 17.546875 -30.445312 17.546875 -25.53125 C 17.546875 -20.613281 18.5625 -16.859375 20.59375 -14.265625 C 22.625 -11.671875 25.398438 -10.375 28.921875 -10.375 Z M 28.921875 -10.375 "/></g></g></g><g fill="#000000" fill-opacity="1"><g transform="translate(345.902345, 97.32199)"><g><path d="M 20.046875 1.59375 C 15.128906 1.59375 11.140625 0.03125 8.078125 -3.09375 C 5.015625 -6.21875 3.484375 -10.703125 3.484375 -16.546875 L 3.484375 -51.0625 L 19.4375 -51.0625 L 19.4375 -21.640625 C 19.4375 -17.785156 20.101562 -15.109375 21.4375 -13.609375 C 22.769531 -12.117188 24.765625 -11.375 27.421875 -11.375 C 30.484375 -11.375 32.84375 -12.1875 34.5 -13.8125 C 36.164062 -15.4375 37 -18.015625 37 -21.546875 L 37 -51.0625 L 52.953125 -51.0625 L 52.953125 0 L 37 0 L 37 -7.375 L 36.796875 -7.375 C 35.460938 -5.050781 33.46875 -2.972656 30.8125 -1.140625 C 28.15625 0.679688 24.566406 1.59375 20.046875 1.59375 Z M 20.046875 1.59375 "/></g></g></g><g fill="#000000" fill-opacity="1"><g transform="translate(402.735122, 97.32199)"><g><path d="M 23.140625 0.890625 C 17.285156 0.890625 13.328125 -0.617188 11.265625 -3.640625 C 9.203125 -6.660156 8.171875 -11.03125 8.171875 -16.75 L 8.171875 -39.09375 L 1.09375 -39.09375 L 1.09375 -51.0625 L 8.171875 -51.0625 L 8.171875 -65.3125 L 24.125 -65.3125 L 24.125 -51.0625 L 33 -51.0625 L 33 -39.09375 L 24.125 -39.09375 L 24.125 -17.953125 C 24.125 -16.023438 24.390625 -14.660156 24.921875 -13.859375 C 25.460938 -13.066406 26.378906 -12.585938 27.671875 -12.421875 C 28.960938 -12.253906 30.738281 -12.171875 33 -12.171875 L 33 -0.203125 C 31.539062 0.0664062 30.097656 0.316406 28.671875 0.546875 C 27.242188 0.773438 25.398438 0.890625 23.140625 0.890625 Z M 23.140625 0.890625 "/></g></g></g></g></g><g transform="matrix(1, 0, 0, 1, 600, 462)"><g clip-path="url(#dde5801c74)"><g fill="#000000" fill-opacity="1"><g transform="translate(0.672618, 47.130568)"><g><path d="M 18.015625 0.6875 C 14.578125 0.6875 11.613281 -0.09375 9.125 -1.65625 C 6.644531 -3.21875 4.738281 -5.359375 3.40625 -8.078125 C 2.070312 -10.804688 1.40625 -13.925781 1.40625 -17.4375 C 1.40625 -20.9375 2.070312 -24.039062 3.40625 -26.75 C 4.738281 -29.457031 6.644531 -31.59375 9.125 -33.15625 C 11.613281 -34.71875 14.578125 -35.5 18.015625 -35.5 C 21.453125 -35.5 24.410156 -34.71875 26.890625 -33.15625 C 29.378906 -31.59375 31.296875 -29.457031 32.640625 -26.75 C 33.992188 -24.039062 34.671875 -20.9375 34.671875 -17.4375 C 34.671875 -13.925781 33.992188 -10.804688 32.640625 -8.078125 C 31.296875 -5.359375 29.378906 -3.21875 26.890625 -1.65625 C 24.410156 -0.09375 21.453125 0.6875 18.015625 0.6875 Z M 18.015625 -3.609375 C 20.453125 -3.609375 22.53125 -4.207031 24.25 -5.40625 C 25.96875 -6.601562 27.269531 -8.238281 28.15625 -10.3125 C 29.050781 -12.394531 29.5 -14.769531 29.5 -17.4375 C 29.5 -20.09375 29.050781 -22.457031 28.15625 -24.53125 C 27.269531 -26.613281 25.96875 -28.242188 24.25 -29.421875 C 22.53125 -30.609375 20.453125 -31.203125 18.015625 -31.203125 C 15.578125 -31.203125 13.503906 -30.609375 11.796875 -29.421875 C 10.097656 -28.242188 8.800781 -26.613281 7.90625 -24.53125 C 7.019531 -22.457031 6.578125 -20.09375 6.578125 -17.4375 C 6.578125 -14.769531 7.019531 -12.394531 7.90625 -10.3125 C 8.800781 -8.238281 10.097656 -6.601562 11.796875 -5.40625 C 13.503906 -4.207031 15.578125 -3.609375 18.015625 -3.609375 Z M 18.015625 -3.609375 "/></g></g></g><g fill="#000000" fill-opacity="1"><g transform="translate(36.689419, 47.130568)"><g><path d="M 15.875 0.6875 C 13.082031 0.6875 10.570312 0.234375 8.34375 -0.671875 C 6.125 -1.585938 4.347656 -2.945312 3.015625 -4.75 C 1.679688 -6.550781 0.984375 -8.75 0.921875 -11.34375 L 6.078125 -11.34375 C 6.179688 -8.75 7.140625 -6.8125 8.953125 -5.53125 C 10.773438 -4.25 13.082031 -3.609375 15.875 -3.609375 C 18.375 -3.609375 20.253906 -4.164062 21.515625 -5.28125 C 22.785156 -6.40625 23.421875 -7.726562 23.421875 -9.25 C 23.453125 -10.707031 23.046875 -11.847656 22.203125 -12.671875 C 21.359375 -13.503906 20.15625 -14.171875 18.59375 -14.671875 C 17.039062 -15.179688 15.175781 -15.660156 13 -16.109375 C 10.882812 -16.597656 9.007812 -17.222656 7.375 -17.984375 C 5.738281 -18.753906 4.445312 -19.78125 3.5 -21.0625 C 2.5625 -22.34375 2.09375 -23.988281 2.09375 -26 C 2.09375 -28.207031 2.632812 -30.007812 3.71875 -31.40625 C 4.8125 -32.800781 6.28125 -33.832031 8.125 -34.5 C 9.976562 -35.164062 12.054688 -35.5 14.359375 -35.5 C 16.859375 -35.5 19.085938 -35.078125 21.046875 -34.234375 C 23.015625 -33.390625 24.59375 -32.175781 25.78125 -30.59375 C 26.96875 -29.019531 27.609375 -27.113281 27.703125 -24.875 L 22.546875 -24.875 C 22.316406 -26.820312 21.519531 -28.363281 20.15625 -29.5 C 18.789062 -30.632812 16.859375 -31.203125 14.359375 -31.203125 C 12.285156 -31.203125 10.582031 -30.78125 9.25 -29.9375 C 7.914062 -29.09375 7.25 -27.894531 7.25 -26.34375 C 7.25 -25.039062 7.585938 -24.03125 8.265625 -23.3125 C 8.953125 -22.601562 9.941406 -22.035156 11.234375 -21.609375 C 12.535156 -21.191406 14.097656 -20.769531 15.921875 -20.34375 C 18.359375 -19.832031 20.523438 -19.175781 22.421875 -18.375 C 24.316406 -17.582031 25.816406 -16.503906 26.921875 -15.140625 C 28.023438 -13.773438 28.578125 -11.957031 28.578125 -9.6875 C 28.578125 -7.707031 28.082031 -5.929688 27.09375 -4.359375 C 26.101562 -2.785156 24.65625 -1.550781 22.75 -0.65625 C 20.851562 0.238281 18.5625 0.6875 15.875 0.6875 Z M 15.875 0.6875 "/></g></g></g></g></g></svg>